<svg xmlns="http://www.w3.org/2000/svg" viewBox="0 0 960 330" role="img" aria-labelledby="title desc">
  <title id="title">转变之前</title>
  <desc id="desc">从实心菱形起点向外展开的规整螺旋，经过两个空心圆节点，左侧末端沿笛卡尔坐标系 y 轴正方向形成向上箭头。</desc>
  <g transform="translate(0 330) scale(1 -1)">
  <polyline
    points="160.1,169.9 160.1,171.5 160.2,173.1 160.6,174.7 161.3,176.3 162.4,177.9 163.9,179.3 165.6,180.6 167.6,181.6 169.9,182.4 172.4,182.8 175,182.9 177.8,182.6 180.6,181.9 183.4,180.7 186.2,179.1 188.8,177.1 191.2,174.7 193.3,171.8 195.2,168.6 196.6,165 197.6,161.1 198.1,157 198.1,152.8 197.5,148.4 196.4,144 194.6,139.7 192.3,135.5 189.4,131.5 185.8,127.8 181.8,124.4 177.3,121.6 172.3,119.2 166.9,117.4 161.2,116.3 155.2,115.9 149.2,116.2 143,117.3 136.9,119.2 131,121.8 125.3,125.3 119.9,129.4 115,134.4 110.6,139.9 106.9,146.1 103.8,152.8 101.6,160 100.2,167.5 99.8,175.3 100.3,183.3 101.7,191.2 104.2,199.1 107.6,206.7 112,214 117.3,220.8 123.5,227.1 130.6,232.6 138.3,237.3 146.7,241.2 155.6,244 165,245.8 174.6,246.5 184.4,246 194.2,244.3 203.9,241.4 213.3,237.3 222.3,232.1 230.7,225.7 238.3,218.3 245.2,209.9 251,200.6 255.8,190.6 259.4,179.9 261.7,168.8 262.7,157.3 262.3,145.6 260.6,133.9 257.4,122.4 252.8,111.2 246.8,100.5 239.5,90.5 231,81.3 221.4,73 210.7,65.9 199.1,60.1 186.8,55.6 173.8,52.6 160.5,51.1 147,51.2 133.4,52.9 120,56.3 106.9,61.2 94.4,67.8 82.6,75.9 71.8,85.4 62,96.2 53.6,108.2 46.5,121.3 41,135.2 37.1,149.9 35,165"
    fill="none" stroke="#1677ff" stroke-width="8" stroke-linecap="round" stroke-linejoin="round"/>
  <rect x="151.1" y="160.9" width="18" height="18" rx="1" fill="#1677ff" transform="rotate(45 160.1 169.9)"/>
  <circle cx="155.2" cy="115.9" r="8" fill="#fff" stroke="#1677ff" stroke-width="5"/>
  <circle cx="238.3" cy="218.3" r="8" fill="#fff" stroke="#1677ff" stroke-width="5"/>
  <path d="M35 171 22 148 48 148Z" fill="#1677ff"/>
  </g>
  <g font-family="Microsoft YaHei, PingFang SC, Noto Sans CJK SC, sans-serif">
    <text x="405" y="177" fill="#101a2b" font-size="82" font-weight="700" letter-spacing="-5">转变之前</text>
    <text x="411" y="223" fill="#1677ff" font-size="18" font-weight="600" letter-spacing="7">BEFORE THE TURN</text>
  </g>
</svg>
